<?xml version="1.0" encoding="UTF-8" standalone="no"?>
<svg
   xmlns:dc="http://purl.org/dc/elements/1.1/"
   xmlns:cc="http://creativecommons.org/ns#"
   xmlns:rdf="http://www.w3.org/1999/02/22-rdf-syntax-ns#"
   xmlns:svg="http://www.w3.org/2000/svg"
   xmlns="http://www.w3.org/2000/svg"
   xmlns:sodipodi="http://sodipodi.sourceforge.net/DTD/sodipodi-0.dtd"
   xmlns:inkscape="http://www.inkscape.org/namespaces/inkscape"
   version="1.1"
   id="svg2"
   width="433"
   height="53"
   viewBox="0 0 433 53"
   sodipodi:docname="logo_purple.svg"
   inkscape:version="1.0.2 (e86c870879, 2021-01-15)"
   inkscape:export-filename="/home/tw2113/Dropbox/hotwired.tech/assets/logo_purple.png"
   inkscape:export-xdpi="79.579765"
   inkscape:export-ydpi="79.579765">
  <metadata
     id="metadata8">
    <rdf:RDF>
      <cc:Work
         rdf:about="">
        <dc:format>image/svg+xml</dc:format>
        <dc:type
           rdf:resource="http://purl.org/dc/dcmitype/StillImage" />
        <dc:title />
      </cc:Work>
    </rdf:RDF>
  </metadata>
  <defs
     id="defs6" />
  <sodipodi:namedview
     pagecolor="#ffffff"
     bordercolor="#666666"
     borderopacity="1"
     objecttolerance="10"
     gridtolerance="10"
     guidetolerance="10"
     inkscape:pageopacity="0"
     inkscape:pageshadow="2"
     inkscape:window-width="1920"
     inkscape:window-height="1028"
     id="namedview4"
     showgrid="false"
     inkscape:zoom="7.9365796"
     inkscape:cx="414.4288"
     inkscape:cy="16.770281"
     inkscape:window-x="0"
     inkscape:window-y="0"
     inkscape:window-maximized="1"
     inkscape:current-layer="g1220"
     inkscape:document-rotation="0" />
  <g
     inkscape:groupmode="layer"
     inkscape:label="Image"
     id="g10">
    <g
       id="g1220"
       transform="translate(-0.04912516,-0.04687494)">
      <path
         id="path32"
         style="fill:#663399;fill-opacity:1;stroke:none;stroke-width:1.04577;stroke-miterlimit:4;stroke-dasharray:none"
         d="M 71.849609,0.14634978 A 26.249527,26.430275 0 0 0 45.646484,26.576383 a 26.249527,26.430275 0 0 0 26.25,26.430034 26.249527,26.430275 0 0 0 26.25,-26.430034 26.249527,26.430275 0 0 0 -26.25,-26.43003322 26.249527,26.430275 0 0 0 -0.04687,0 z M 72.232422,10.910989 a 14.808224,14.91019 0 0 1 0.06055,0 14.808224,14.91019 0 0 1 14.808593,14.9092 14.808224,14.91019 0 0 1 -14.808596,14.911135 14.808224,14.91019 0 0 1 -14.808594,-14.911135 14.808224,14.91019 0 0 1 14.748047,-14.9092 z m -0.05859,7.888784 a 6.973577,7.0215953 0 0 0 -6.855469,7.020416 6.973577,7.0215953 0 0 0 6.97461,7.022352 6.973577,7.0215953 0 0 0 6.972656,-7.022352 6.973577,7.0215953 0 0 0 -6.972656,-7.020416 6.973577,7.0215953 0 0 0 -0.119141,0 z" />
      <path
         id="rect863"
         style="fill:#663399;fill-opacity:1;stroke:none;stroke-width:1;stroke-miterlimit:4;stroke-dasharray:none;stroke-opacity:1"
         d="M -0.10096968,9.1433681 H 9.7049845 V 21.075481 H 19.756573 L 19.841463,10.03717 H 31.183346 V 41.109797 H 20.630948 V 29.597434 H 11.684282 L 11.106366,42.838219 -0.10096968,42.9531 Z"
         sodipodi:nodetypes="ccccccccccccc" />
      <path
         id="ellipse865"
         style="fill:#663399;fill-opacity:1;stroke:none;stroke-width:1.04598;stroke-miterlimit:4;stroke-dasharray:none"
         d="M 184.92773,0.15834022 C 170.44874,0.18412423 158.72472,12.0143 158.72461,26.598724 c 1.3e-4,14.602846 11.7527,26.440646 26.25,26.440383 14.4973,2.63e-4 26.24987,-11.837537 26.25,-26.440383 -1.3e-4,-14.602846 -11.7527,-26.44064691 -26.25,-26.44038378 z M 166.09427,12.921929 h 6.62253 l 2.4358,17.49407 h 1.375 l 5.2517,-16.348694 h 7.60156 l 3.55985,15.853609 h 1.36047 l 4.54257,-16.329558 h 4.39258 l -6.37891,24.730059 h -7.99414 l -2.69954,-15.852609 h -1.51215 l -5.76487,15.742327 h -7.41406 z"
         sodipodi:nodetypes="ccccscccccccccccccccccc" />
      <path
         id="ellipse867"
         style="fill:#663399;fill-opacity:1;stroke:none;stroke-width:1.04638;stroke-miterlimit:4;stroke-dasharray:none"
         d="m 295.16016,0.18064167 a 26.249527,26.460995 0 0 0 -26.20313,26.46075333 26.249527,26.460995 0 0 0 26.25,26.460753 26.249527,26.460995 0 0 0 26.25,-26.460753 26.249527,26.460995 0 0 0 -26.25,-26.46075333 26.249527,26.460995 0 0 0 -0.0469,0 z m -11.19141,11.64458933 15.00586,0.172326 c 6.87179,-0.03337 12.37888,8.174954 4.35547,14.090071 1.04573,1.327536 2.90966,2.504699 3.3418,3.99835 0.48552,1.678141 0.69558,5.481867 0.40624,7.394528 l -6.87695,-0.131665 c 0,0 0.20999,-5.985315 0,-6.87755 -0.20999,-0.892234 -0.45963,-1.640985 -1.27929,-2.371902 h -8.10352 l -0.13086,10.413137 -6.71875,0.118111 z m 5.83594,3.661444 v 7.266736 h 9.24219 v -7.266736 z" />
      <path
         id="ellipse869"
         style="fill:#663399;fill-opacity:1;stroke:none;stroke-width:1.04483;stroke-miterlimit:4;stroke-dasharray:none"
         d="M 406.9043,0.24608745 C 392.4253,0.27180935 380.70128,12.076022 380.70117,26.62844 c 1.3e-4,14.570797 11.7527,26.382617 26.25,26.382355 14.49654,-8.2e-4 26.24792,-11.812324 26.24805,-26.382355 C 433.19909,12.05841 421.44771,0.24690727 406.95117,0.24608745 Z M 402.79492,12.166989 c 14.55808,0.06319 20.26575,6.587369 20.41016,14.266471 -0.48122,11.730075 -12.25183,13.326042 -27.18946,12.556039 V 12.217181 c 2.44153,-0.03295 4.69958,-0.05922 6.7793,-0.05019 z m 0.082,6.764507 v 13.438282 c 8.70857,0.139486 10.4304,-1.35789 10.5293,-6.523193 0.007,-3.703858 0.214,-7.03241 -10.5293,-6.915089 z" />
      <path
         id="rect1170"
         style="fill:#663399;fill-opacity:1;stroke:none;stroke-width:1;stroke-miterlimit:4;stroke-dasharray:none;stroke-opacity:1"
         d="m 111.9291,8.7064676 h 29.26163 v 8.3806364 h -7.8602 V 43.249697 H 121.91086 V 19.8952 h -9.98176 z"
         sodipodi:nodetypes="ccccccccc" />
      <path
         id="rect1178"
         style="fill:#663399;fill-opacity:1;stroke:none;stroke-width:1;stroke-miterlimit:4;stroke-dasharray:none;stroke-opacity:1"
         d="m 233.74047,8.6967125 h 12.51867 V 42.500209 l -12.51867,0.788834 z"
         sodipodi:nodetypes="ccccc" />
      <path
         id="rect1198"
         style="fill:#663399;fill-opacity:1;stroke:none;stroke-width:1;stroke-miterlimit:4;stroke-dasharray:none;stroke-opacity:1"
         d="m 337.80774,8.727787 h 24.21538 v 6.095847 h -12.95666 v 6.192211 h 11.03176 v 8.016988 h -11.74737 v 5.470087 h 14.81607 v 8.771647 h -25.35918 z"
         sodipodi:nodetypes="ccccccccccccc" />
    </g>
  </g>
</svg>
